# xmcd
#
# Track frame offsets:
#	150
#	14067
#	27062
#	39417
#	65715
#	77975
#	93362
#	110067
#	131022
#	144032
#	179300
#	192627
#	205125
#	216582
#	261292
#	282447
#	294030
#	311850
#
# Disc length: 4476
#
# Revision: 2
# Processed by: cddbd v1.5.1PL0 Copyright (c) Steve Scherf et al.
# Submitted via: CDex 1.51
# Normalized: r0:DSETVAR1,TSWAP
#
DISCID=19117a12
DTITLE=Various Artist - Monochrome disc 3
DYEAR=1950
DGENRE=Jazz
TTITLE0=Charlie Parker - Steeple chase
TTITLE1=Art Pepper - Surf ride
TTITLE2=Fats Navarro - Nostalgia
TTITLE3=Hank Mobley - There will never be another you
TTITLE4=Dizzy Gillespie - Groovin' high
TTITLE5=Lester Young - Blue lester
TTITLE6=Dexter Gordon - So easy
TTITLE7=Hank Jones - Almost like being in love
TTITLE8=George Wallington - Polka dot
TTITLE9=Donald Byrd - Star eyes
TTITLE10=Chalie Parker - Chasin' the bird
TTITLE11=Hank Mobley - That's all
TTITLE12=Stan Getz - Opus de bop
TTITLE13=Wilber Harden, John Coltrane - Tanganyika strut
TTITLE14=Art Blakey and The Jazz Messengers - Mirage
TTITLE15=Milt Jackson - Yesterdays
TTITLE16=J.J. Johnson and Kai Winding - Bernie's tune
TTITLE17=Curtis Fuller - Five spot after dark
EXTD=YEAR: 1950
EXTT0=
EXTT1=
EXTT2=
EXTT3=
EXTT4=
EXTT5=
EXTT6=
EXTT7=
EXTT8=
EXTT9=
EXTT10=
EXTT11=
EXTT12=
EXTT13=
EXTT14=
EXTT15=
EXTT16=
EXTT17=
PLAYORDER=
